# xmcd CD database file
#
# Track frame offsets:
#	182
#	21155
#	36430
#	56942
#	72387
#	90885
#	105092
#	127300
#	138067
#	161485
#	175372
#	187710
#	206645
#	226780
#
# Disc length: 3281 seconds
#
# Revision: 2
# Processed by: cddbd v1.5.1PL0 Copyright (c) Steve Scherf et al.
# Submitted via: CDex 1.51
#
DISCID=b60ccf0e
DTITLE=Fernandito Villalona - Quisquellano
DYEAR=1991
DGENRE=Latin
TTITLE0=Quisquellano
TTITLE1=Respeta Mi Dolor
TTITLE2=La Hamaquita
TTITLE3=Te Amo Demasiado
TTITLE4=Carnaval
TTITLE5=Morir Sonando
TTITLE6=La Chula
TTITLE7=Concavo Y Convexo
TTITLE8=El Polvorete
TTITLE9=La Juventud
TTITLE10=Hablame
TTITLE11=Celos
TTITLE12=Santiago
TTITLE13=Amor Amor
EXTD=From: The Saint YEAR: 1991
EXTT0=
EXTT1=
EXTT2=
EXTT3=
EXTT4=
EXTT5=
EXTT6=
EXTT7=
EXTT8=
EXTT9=
EXTT10=
EXTT11=
EXTT12=
EXTT13=
PLAYORDER=
